<svg id="Layer_1" data-name="Layer 1" xmlns="http://www.w3.org/2000/svg" viewBox="0 0 254.51 254.52"><defs><style>.cls-1{font-size:32px;font-family:Helvetica-Bold, Helvetica;font-weight:700;}</style></defs><text class="cls-1" transform="translate(126.57 26.85) rotate(6.15)">R</text><text class="cls-1" transform="translate(148.46 29.18) rotate(18.3)">E</text><text class="cls-1" transform="translate(167.75 35.35) rotate(30.44)">C</text><text class="cls-1" transform="matrix(0.74, 0.68, -0.68, 0.74, 186.73, 46.47)">E</text><text class="cls-1" transform="translate(201.82 60.02) rotate(54.52)">N</text><text class="cls-1" transform="translate(214.56 78) rotate(66.13)">T</text><text class="cls-1" transform="translate(221.88 95.31) rotate(73.92)"> </text><text class="cls-1" transform="translate(224.43 101.85) rotate(82.02)">A</text><text class="cls-1" transform="translate(227.59 123.62) rotate(94.46)">R</text><text class="cls-1" transform="translate(225.81 145.59) rotate(106.1)">T</text><text class="cls-1" transform="translate(220.31 163.54) rotate(113.88)">I</text><text class="cls-1" transform="translate(217.57 171.2) rotate(122.6)">C</text><text class="cls-1" transform="translate(205.63 189.73) rotate(134.16)">L</text><text class="cls-1" transform="translate(192.84 203.17) rotate(145.23)">E</text><text class="cls-1" transform="matrix(-0.92, 0.39, -0.39, -0.92, 176.24, 214.83)">S</text><text class="cls-1" transform="matrix(-0.97, 0.26, -0.26, -0.97, 157.22, 222.54)"> </text><text class="cls-1" transform="matrix(-0.99, 0.16, -0.16, -0.99, 149.17, 224.76)">•</text><text class="cls-1" transform="translate(138.61 226.47) rotate(176.08)"> </text><text class="cls-1" transform="translate(130.54 227.62) rotate(-175.33)">R</text><text class="cls-1" transform="translate(108.61 225.86) rotate(-163.21)">E</text><text class="cls-1" transform="translate(89.15 220.2) rotate(-151.05)">C</text><text class="cls-1" transform="translate(69.88 209.57) rotate(-138.99)">E</text><text class="cls-1" transform="matrix(-0.6, -0.8, 0.8, -0.6, 54.44, 196.42)">N</text><text class="cls-1" transform="matrix(-0.43, -0.9, 0.9, -0.43, 41.26, 178.79)">T</text><text class="cls-1" transform="translate(33.49 161.67) rotate(-107.59)"> </text><text class="cls-1" transform="translate(30.77 155.2) rotate(-99.48)">A</text><text class="cls-1" transform="matrix(0.05, -1, 1, 0.05, 27.04, 133.53)">R</text><text class="cls-1" transform="matrix(0.25, -0.97, 0.97, 0.25, 28.25, 111.53)">T</text><text class="cls-1" transform="translate(33.28 93.42) rotate(-67.62)">I</text><text class="cls-1" transform="matrix(0.52, -0.86, 0.86, 0.52, 35.82, 85.69)">C</text><text class="cls-1" transform="translate(47.27 66.85) rotate(-47.33)">L</text><text class="cls-1" transform="matrix(0.81, -0.59, 0.59, 0.81, 59.7, 53.1)">E</text><text class="cls-1" transform="translate(75.98 41.01) rotate(-24.66)">S</text><text class="cls-1" transform="translate(94.83 32.79) rotate(-16.37)"> </text><text class="cls-1" transform="translate(102.83 30.36) rotate(-10.87)">•</text><text class="cls-1" transform="translate(113.29 28.38) rotate(-5.42)"> </text></svg>